<?xml version="1.0" encoding="UTF-8"?>
<svg xmlns="http://www.w3.org/2000/svg" xmlns:xlink="http://www.w3.org/1999/xlink" width="1440pt" height="809.999993pt" viewBox="0 0 1440 809.999993" version="1.2">
<defs>
<clipPath id="clip1">
  <path d="M 0 91 L 349 91 L 349 810 L 0 810 Z M 0 91 "/>
</clipPath>
<clipPath id="clip2">
  <path d="M 578.929688 642.601562 L 31.28125 925.714844 L -325.195312 236.160156 L 222.453125 -46.957031 Z M 578.929688 642.601562 "/>
</clipPath>
<clipPath id="clip3">
  <path d="M 31.261719 925.726562 L 578.910156 642.613281 L 222.433594 -46.945312 L -325.214844 236.167969 Z M 31.261719 925.726562 "/>
</clipPath>
<clipPath id="clip4">
  <path d="M 88 178 L 470 178 L 470 687 L 88 687 Z M 88 178 "/>
</clipPath>
<clipPath id="clip5">
  <path d="M 0 564.625 L 257.242188 145.234375 L 533.429688 314.640625 L 276.183594 734.03125 Z M 0 564.625 "/>
</clipPath>
<clipPath id="clip6">
  <path d="M 0 564.625 L 257.242188 145.234375 L 533.429688 314.640625 L 276.183594 734.03125 Z M 0 564.625 "/>
</clipPath>
</defs>
<g id="surface1">
<rect x="0" y="0" width="1440" height="809.999993" style="fill:rgb(100%,100%,100%);fill-opacity:1;stroke:none;"/>
<rect x="0" y="0" width="1440" height="809.999993" style="fill:rgb(100%,100%,100%);fill-opacity:1;stroke:none;"/>
<rect x="0" y="0" width="1440" height="809.999993" style="fill:rgb(94.898987%,93.728638%,87.449646%);fill-opacity:1;stroke:none;"/>
<g clip-path="url(#clip1)" clip-rule="nonzero">
<g clip-path="url(#clip2)" clip-rule="nonzero">
<g clip-path="url(#clip3)" clip-rule="nonzero">
<path style=" stroke:none;fill-rule:nonzero;fill:rgb(49.409485%,85.099792%,74.899292%);fill-opacity:1;" d="M -50.652344 489.691406 C -50.652344 489.691406 -110.378906 435.171875 -67.289062 351.015625 C -24.199219 266.859375 -104.578125 122.148438 -51.59375 96.613281 C 1.390625 71.078125 75.761719 153.917969 80.386719 222.691406 C 85.011719 291.464844 98.757812 452.054688 -50.652344 489.691406 Z M 308.402344 416.078125 C 276.101562 480.425781 248.007812 546.929688 225.097656 615.085938 C 212.070312 650.902344 184.382812 639.226562 167.753906 627.402344 C 159.8125 621.609375 150.890625 616.316406 141.246094 612.019531 C 81.179688 586.761719 136.878906 454.007812 150.242188 424.820312 C 151.910156 420.867188 153.574219 416.910156 154.753906 413.207031 C 164.703125 385.785156 211.242188 266.429688 288.058594 258.277344 C 375.175781 248.515625 356.507812 321.285156 308.402344 416.078125 Z M 106.484375 748.183594 C 149.804688 788.910156 149.230469 854.800781 128.546875 869.824219 C 107.859375 884.851562 42.472656 919.890625 -13.234375 800.171875 C -29.945312 764.257812 -112.898438 646.871094 -40.386719 593.296875 C 32.121094 539.722656 63.164062 707.460938 106.484375 748.183594 Z M 106.484375 748.183594 "/>
</g>
</g>
</g>
<g clip-path="url(#clip4)" clip-rule="nonzero">
<g clip-path="url(#clip5)" clip-rule="nonzero">
<g clip-path="url(#clip6)" clip-rule="nonzero">
<path style=" stroke:none;fill-rule:nonzero;fill:rgb(94.898987%,93.728638%,87.449646%);fill-opacity:1;" d="M 435.710938 472.710938 C 421.273438 495.617188 405.296875 517.183594 387.894531 537.878906 C 371.9375 557.5 356.660156 577.929688 340.988281 597.722656 C 323.390625 620.652344 306.082031 643.757812 283.484375 662.046875 C 280.246094 664.769531 277.011719 667.488281 273.488281 670.03125 C 249.050781 688.765625 222.308594 690.789062 194.777344 679.390625 C 171.585938 669.871094 150.839844 656.363281 131.144531 641.144531 C 121.867188 633.886719 114.445312 624.238281 109.671875 613.46875 C 104.332031 602.347656 99.449219 591.121094 95.027344 579.78125 C 90.164062 566.605469 87.949219 552.304688 88.429688 538.09375 C 88.488281 495.78125 92.667969 454.429688 107.671875 414.617188 C 113.082031 400.683594 119.0625 387.097656 126.070312 373.753906 C 139.738281 347.632812 153.976562 321.859375 168.039062 296.375 C 173.347656 287.082031 179.226562 278.140625 184.53125 268.847656 C 192.636719 254.996094 200.453125 240.972656 208.558594 227.121094 C 213.449219 219.140625 217.949219 210.53125 224.488281 204.347656 C 234.789062 194.589844 246.054688 185.816406 260.375 181.660156 C 279.292969 176.402344 297.847656 178.765625 315.515625 184.503906 C 326.429688 188.453125 336.472656 193.828125 345.640625 200.628906 C 376.914062 222.554688 403.597656 250.6875 424.046875 283.226562 C 437.378906 304.34375 450.535156 325.746094 463.515625 347.433594 C 467.46875 353.78125 469.519531 361.308594 469.621094 368.820312 C 470.253906 392.734375 467.222656 415.582031 455.039062 436.730469 C 448.902344 448.652344 442.308594 460.683594 435.710938 472.710938 Z M 435.710938 472.710938 "/>
</g>
</g>
</g>
</g>
</svg>
