<?xml version="1.0" encoding="UTF-8"?>
<svg xmlns="http://www.w3.org/2000/svg" xmlns:xlink="http://www.w3.org/1999/xlink" width="1440pt" height="809.999993pt" viewBox="0 0 1440 809.999993" version="1.2">
<defs>
<clipPath id="clip1">
  <path d="M 0 56 L 374 56 L 374 810 L 0 810 Z M 0 56 "/>
</clipPath>
<clipPath id="clip2">
  <path d="M 571.050781 660.796875 L -0.21875 892.574219 L -292.054688 173.273438 L 279.214844 -58.503906 Z M 571.050781 660.796875 "/>
</clipPath>
<clipPath id="clip3">
  <path d="M -0.242188 892.582031 L 571.03125 660.804688 L 279.195312 -58.496094 L -292.078125 173.28125 Z M -0.242188 892.582031 "/>
</clipPath>
<clipPath id="clip4">
  <path d="M 88 178 L 470 178 L 470 687 L 88 687 Z M 88 178 "/>
</clipPath>
<clipPath id="clip5">
  <path d="M 0 564.625 L 257.242188 145.234375 L 533.429688 314.640625 L 276.183594 734.03125 Z M 0 564.625 "/>
</clipPath>
<clipPath id="clip6">
  <path d="M 0 564.625 L 257.242188 145.234375 L 533.429688 314.640625 L 276.183594 734.03125 Z M 0 564.625 "/>
</clipPath>
<clipPath id="clip7">
  <path d="M 0 659 L 211 659 L 211 810 L 0 810 Z M 0 659 "/>
</clipPath>
<clipPath id="clip8">
  <path d="M -120.984375 837.519531 L -69.511719 620.027344 L 245.777344 694.644531 L 194.304688 912.136719 Z M -120.984375 837.519531 "/>
</clipPath>
<clipPath id="clip9">
  <path d="M -120.984375 837.519531 L -69.511719 620.027344 L 245.777344 694.644531 L 194.304688 912.136719 Z M -120.984375 837.519531 "/>
</clipPath>
</defs>
<g id="surface1">
<rect x="0" y="0" width="1440" height="809.999993" style="fill:rgb(100%,100%,100%);fill-opacity:1;stroke:none;"/>
<rect x="0" y="0" width="1440" height="809.999993" style="fill:rgb(100%,100%,100%);fill-opacity:1;stroke:none;"/>
<rect x="0" y="0" width="1440" height="809.999993" style="fill:rgb(94.898987%,93.728638%,87.449646%);fill-opacity:1;stroke:none;"/>
<g clip-path="url(#clip1)" clip-rule="nonzero">
<g clip-path="url(#clip2)" clip-rule="nonzero">
<g clip-path="url(#clip3)" clip-rule="nonzero">
<path style=" stroke:none;fill-rule:nonzero;fill:rgb(49.409485%,85.099792%,74.899292%);fill-opacity:1;" d="M -41.882812 450.878906 C -41.882812 450.878906 -96.367188 391.121094 -45.753906 311.261719 C 4.863281 231.402344 -61.925781 79.941406 -6.828125 59.367188 C 48.273438 38.789062 114.746094 128.09375 113.054688 197 C 111.363281 265.90625 110.34375 427.082031 -41.882812 450.878906 Z M 322.402344 410.453125 C 284.34375 471.574219 250.28125 535.222656 221.226562 600.996094 C 204.972656 635.472656 178.472656 621.308594 162.996094 608.007812 C 155.617188 601.511719 147.21875 595.429688 138.007812 590.265625 C 80.507812 559.613281 148.125 432.515625 164.109375 404.675781 C 166.128906 400.890625 168.152344 397.105469 169.664062 393.523438 C 182.082031 367.128906 239.355469 252.535156 316.597656 251.453125 C 404.238281 249.707031 378.988281 320.460938 322.402344 410.453125 Z M 90.925781 722.675781 C 130.335938 767.195312 123.726562 832.757812 101.753906 845.824219 C 79.777344 858.890625 11.457031 887.796875 -33.050781 763.484375 C -46.402344 726.1875 -118.257812 601.695312 -41.148438 554.988281 C 35.960938 508.277344 51.515625 678.15625 90.925781 722.675781 Z M 90.925781 722.675781 "/>
</g>
</g>
</g>
<g clip-path="url(#clip4)" clip-rule="nonzero">
<g clip-path="url(#clip5)" clip-rule="nonzero">
<g clip-path="url(#clip6)" clip-rule="nonzero">
<path style=" stroke:none;fill-rule:nonzero;fill:rgb(94.898987%,93.728638%,87.449646%);fill-opacity:1;" d="M 435.710938 472.710938 C 421.273438 495.617188 405.296875 517.183594 387.894531 537.878906 C 371.9375 557.5 356.660156 577.929688 340.988281 597.722656 C 323.390625 620.652344 306.082031 643.757812 283.484375 662.046875 C 280.246094 664.769531 277.011719 667.488281 273.488281 670.03125 C 249.050781 688.765625 222.308594 690.789062 194.777344 679.390625 C 171.585938 669.871094 150.839844 656.363281 131.144531 641.144531 C 121.867188 633.886719 114.445312 624.238281 109.671875 613.46875 C 104.332031 602.347656 99.449219 591.121094 95.027344 579.78125 C 90.164062 566.605469 87.949219 552.304688 88.429688 538.09375 C 88.488281 495.78125 92.667969 454.429688 107.671875 414.617188 C 113.082031 400.683594 119.0625 387.097656 126.070312 373.753906 C 139.738281 347.632812 153.976562 321.859375 168.039062 296.375 C 173.347656 287.082031 179.226562 278.140625 184.53125 268.847656 C 192.636719 254.996094 200.453125 240.972656 208.558594 227.121094 C 213.449219 219.140625 217.949219 210.53125 224.488281 204.347656 C 234.789062 194.589844 246.054688 185.816406 260.375 181.660156 C 279.292969 176.402344 297.847656 178.765625 315.515625 184.503906 C 326.429688 188.453125 336.472656 193.828125 345.640625 200.628906 C 376.914062 222.554688 403.597656 250.6875 424.046875 283.226562 C 437.378906 304.34375 450.535156 325.746094 463.515625 347.433594 C 467.46875 353.78125 469.519531 361.308594 469.621094 368.820312 C 470.253906 392.734375 467.222656 415.582031 455.039062 436.730469 C 448.902344 448.652344 442.308594 460.683594 435.710938 472.710938 Z M 435.710938 472.710938 "/>
</g>
</g>
</g>
<g clip-path="url(#clip7)" clip-rule="nonzero">
<g clip-path="url(#clip8)" clip-rule="nonzero">
<g clip-path="url(#clip9)" clip-rule="nonzero">
<path style=" stroke:none;fill-rule:nonzero;fill:rgb(94.898987%,52.938843%,16.079712%);fill-opacity:1;" d="M 206.101562 856.4375 C 201.710938 874.574219 194.625 891.972656 185.160156 908.121094 L 184.453125 909.4375 L 166.339844 898.527344 L 166.910156 897.375 C 167.296875 896.578125 206.386719 813.40625 174.183594 773.363281 C 141.21875 732.347656 121.304688 708.558594 95.980469 698.015625 C 93.820312 697.109375 91.5625 696.179688 89.332031 695.160156 C 64.445312 684.425781 36.226562 672.308594 4.667969 689.355469 C -29.953125 708.050781 -82.300781 746.863281 -82.789062 747.242188 L -83.527344 747.859375 L -97.75 739.351562 L -96.648438 738.03125 C -96.234375 737.539062 -55.785156 690.867188 -3.140625 670.902344 C 51.128906 650.335938 86.410156 657.300781 147.839844 700.601562 C 178.96875 722.601562 200.152344 754.402344 207.46875 790.433594 C 211.886719 812.335938 211.40625 834.859375 206.101562 856.4375 Z M 183.417969 905.433594 C 204.84375 867.605469 212.207031 828.128906 204.648438 791.050781 C 197.4375 755.835938 176.726562 724.539062 146.1875 702.980469 C 85.699219 660.296875 51.078125 653.484375 -2.101562 673.617188 C -49.1875 691.4375 -86.480469 731.046875 -93.320312 738.621094 L -83.785156 744.339844 C -77.070312 739.402344 -29.273438 704.355469 3.210938 686.738281 C 36.019531 669 66.214844 681.976562 90.390625 692.34375 C 92.648438 693.273438 94.878906 694.296875 97.042969 695.203125 C 123.074219 706.109375 143.152344 730.039062 176.421875 771.421875 C 190.269531 788.636719 193.382812 816.0625 185.539062 850.878906 C 181.867188 866.8125 176.695312 882.394531 169.996094 897.316406 Z M 183.417969 905.433594 "/>
</g>
</g>
</g>
</g>
</svg>
